<?xml version="1.0" encoding="utf-8"?>
<!-- Generator: Adobe Illustrator 22.1.0, SVG Export Plug-In . SVG Version: 6.00 Build 0)  -->
<svg version="1.1" id="Layer_1" xmlns="http://www.w3.org/2000/svg" xmlns:xlink="http://www.w3.org/1999/xlink" x="0px" y="0px"
	 viewBox="0 0 320 80" style="enable-background:new 0 0 320 80;" xml:space="preserve">
<style type="text/css">
	.st0{fill:#1288C9;}
	.st1{fill:#184E82;}
	.st2{fill:#808184;}
</style>
<g>
	<g>
		<path id="XMLID_33_" class="st0" d="M37.5,32.9l0.2-2c0.6-5.4,2.2-9.4,4.8-12.1c5.5-5.6,11.8-4.3,12.1-4.3l1,0.2l0.2,1
			c0.1,0.3,1.3,6.7-4.3,12.2c-2.6,2.5-6.7,4.1-12,4.7L37.5,32.9z M52.8,17.6c-0.5,0-1.1,0-1.9,0.2c-2.3,0.4-4.4,1.5-6.1,3.3
			c-1.7,1.8-2.9,4.5-3.6,8.1c3.6-0.6,6.3-1.8,8.1-3.5C52.4,22.6,52.8,19.3,52.8,17.6z"/>
		<path id="XMLID_13_" class="st0" d="M12.1,43.2c-2.5,0-4.8-0.6-6.7-2c0,0-0.1-0.1-0.1-0.1c-0.1,0.1-0.2,0.2-0.4,0.3
			c-0.7,0.7-1.3,1.5-1.7,2.1c1.9,1.4,4.8,2.9,8.9,2.8c3,0,6.2-1.2,9.5-3.4c-0.9-0.8-1.9-1.5-2.7-2.1C16.5,42.4,14.2,43.2,12.1,43.2z
			"/>
		<path id="XMLID_11_" class="st0" d="M33.6,58.3c0,2.5-0.6,4.8-2,6.7c0,0-0.1,0.1-0.1,0.1c0.1,0.1,0.2,0.2,0.3,0.4
			c0.7,0.7,1.5,1.3,2.1,1.7c1.4-1.9,2.9-4.8,2.8-8.9c0-3-1.2-6.2-3.4-9.5c-0.8,0.9-1.5,1.9-2.1,2.7C32.8,53.9,33.5,56.2,33.6,58.3z"
			/>
		<path id="XMLID_10_" class="st0" d="M28,42.4L28,42.4c-0.1-0.1-0.2-0.2-0.3-0.3c-0.7-0.7-1.4-1.4-2.2-2c-0.9-0.8-1.7-1.4-2.5-2.1
			c-3.8-2.8-7.4-4.3-10.8-4.4c-7.9-0.1-11.5,5.3-11.6,5.5L0,40l0.6,0.9C0.6,41,1.1,41.7,2,42.6c0.5-0.8,1.2-1.6,2.1-2.5
			c1.8-1.7,4.5-3.3,8.1-3.3c2.5,0,5.2,1.1,8.2,3.2c0.9,0.6,1.7,1.3,2.6,2.1c0.9,0.8,1.8,1.7,2.8,2.6c0.5,0.5,1,1,1.5,1.5
			c0.6-0.8,1.3-1.7,2.1-2.5C28.9,43.2,28.5,42.8,28,42.4z"/>
		<g id="XMLID_3_">
			<path id="XMLID_29_" class="st1" d="M23.2,47.1l-2,0.2c-5.4,0.6-9.4,2.2-12.1,4.8C3.5,57.6,4.8,64,4.9,64.2l0.2,1l1,0.2
				c0.3,0.1,6.7,1.3,12.2-4.3c2.5-2.6,4.1-6.7,4.7-12L23.2,47.1z M7.9,62.4c0-0.5,0-1.1,0.2-1.9c0.4-2.3,1.5-4.4,3.3-6.1
				c1.8-1.7,4.5-2.9,8.1-3.6c-0.6,3.6-1.8,6.3-3.5,8.1C13,62,9.6,62.4,7.9,62.4z"/>
			<g id="XMLID_19_">
				<path id="XMLID_23_" class="st1" d="M37.5,47.1l2,0.2c5.4,0.6,9.4,2.2,12.1,4.8c5.6,5.5,4.3,11.8,4.3,12.1l-0.2,1l-1,0.2
					c-0.3,0.1-6.7,1.3-12.2-4.3c-2.5-2.6-4.1-6.7-4.7-12L37.5,47.1z M52.8,62.4c0-0.5,0-1.1-0.2-1.9c-0.4-2.3-1.5-4.4-3.3-6.1
					c-1.8-1.7-4.5-2.9-8.1-3.6c0.6,3.6,1.8,6.3,3.5,8.1C47.8,62,51.1,62.4,52.8,62.4z"/>
				<path id="XMLID_20_" class="st1" d="M23.2,32.9l-0.2-2c-0.6-5.4-2.2-9.4-4.8-12.1c-5.5-5.6-11.8-4.3-12.1-4.3l-1,0.2l-0.2,1
					C4.8,16,3.6,22.5,9.2,27.9c2.6,2.5,6.7,4.1,12,4.7L23.2,32.9z M7.9,17.6c0.5,0,1.1,0,1.9,0.2c2.3,0.4,4.4,1.5,6.1,3.3
					c1.7,1.8,2.9,4.5,3.6,8.1c-3.6-0.6-6.3-1.8-8.1-3.5C8.3,22.6,7.9,19.3,7.9,17.6z"/>
			</g>
			<g id="XMLID_15_">
				<path id="XMLID_18_" class="st1" d="M32.5,32.6c2.8-3.8,4.3-7.4,4.4-10.8c0.1-7.9-5.3-11.5-5.5-11.6l-0.9-0.6l-0.9,0.6
					c-0.1,0.1-0.8,0.5-1.7,1.5c0.8,0.5,1.6,1.2,2.5,2.1c1.7,1.8,3.3,4.5,3.3,8.1c0,2.5-1.1,5.2-3.2,8.2c-0.6,0.9-1.3,1.7-2.1,2.6
					c-0.8,0.9-1.7,1.8-2.6,2.8l2.3,2.3c0.1-0.1,0.2-0.2,0.3-0.3c0.7-0.7,1.4-1.4,2-2.2C31.1,34.3,31.8,33.5,32.5,32.6z"/>
				<path id="XMLID_17_" class="st1" d="M27.2,21.7c0-2.5,0.6-4.8,2-6.7c0,0,0.1-0.1,0.1-0.1c-0.1-0.1-0.2-0.2-0.3-0.4
					c-0.7-0.7-1.5-1.3-2.1-1.7c-1.4,1.9-2.9,4.8-2.8,8.9c0,3,1.2,6.2,3.4,9.5c0.8-0.9,1.5-1.9,2.1-2.7C28,26.1,27.2,23.8,27.2,21.7z
					"/>
				<path id="XMLID_16_" class="st1" d="M33.5,33.8c-0.6,0.8-1.3,1.7-2.1,2.5c0.4,0.4,0.8,0.8,1.2,1.3l2.3-2.3
					C34.5,34.8,34,34.3,33.5,33.8z"/>
			</g>
			<path id="XMLID_12_" class="st1" d="M24.2,36.8c0.8,0.6,1.7,1.3,2.5,2.1c0.4-0.4,0.8-0.8,1.3-1.2l-2.3-2.3
				C25.2,35.9,24.7,36.4,24.2,36.8z"/>
			<path id="XMLID_9_" class="st1" d="M37.7,42.1c3.8,2.8,7.4,4.3,10.8,4.4c7.9,0.1,11.5-5.3,11.6-5.5l0.6-0.9l-0.6-0.9
				c-0.1-0.1-0.5-0.8-1.5-1.7c-0.5,0.8-1.2,1.6-2.1,2.5c-1.8,1.7-4.5,3.3-8.1,3.3c-2.5,0-5.2-1.1-8.2-3.2c-0.9-0.6-1.7-1.3-2.6-2.1
				c-0.9-0.8-1.8-1.7-2.8-2.6l-2.3,2.3c0.1,0.1,0.2,0.2,0.3,0.3c0.7,0.7,1.4,1.4,2.2,2C36,40.8,36.9,41.5,37.7,42.1z"/>
			<path id="XMLID_6_" class="st1" d="M48.6,36.8c2.5,0,4.8,0.6,6.7,2c0,0,0.1,0.1,0.1,0.1c0.1-0.1,0.2-0.2,0.4-0.3
				c0.7-0.7,1.3-1.5,1.7-2.1c-1.9-1.4-4.8-2.9-8.9-2.8c-3,0-6.2,1.2-9.5,3.4c0.9,0.8,1.9,1.5,2.7,2.1C44.3,37.6,46.6,36.8,48.6,36.8
				z"/>
		</g>
		<path id="XMLID_5_" class="st0" d="M32.4,47.4c0.8-0.9,1.7-1.8,2.6-2.8c0.5-0.5,1-1,1.5-1.5c-0.8-0.6-1.7-1.3-2.5-2.1
			c-0.4,0.4-0.8,0.8-1.3,1.2l0,0c-0.1,0.1-0.2,0.2-0.3,0.3c-0.7,0.7-1.4,1.4-2,2.2c-0.8,0.9-1.4,1.7-2.1,2.5
			c-2.8,3.8-4.3,7.4-4.4,10.8c-0.1,7.9,5.3,11.5,5.5,11.6l0.9,0.6l0.9-0.6c0.1-0.1,0.8-0.5,1.7-1.5c-0.8-0.5-1.6-1.2-2.5-2.1
			c-1.7-1.8-3.3-4.5-3.3-8.1c0-2.5,1.1-5.2,3.2-8.2C31,49.1,31.7,48.3,32.4,47.4z"/>
	</g>
	<g id="XMLID_118_">
		<path id="XMLID_119_" class="st2" d="M91.2,37v-9.9H80.4V37h-2.9V15.5h2.9v8.9h10.9v-8.9h2.9V37H91.2z"/>
		<path id="XMLID_121_" class="st2" d="M104.9,37.3c-4.1,0-7.6-3.1-7.6-8.2c0-5.1,3.6-8.2,7.6-8.2c4.1,0,7.6,3.1,7.6,8.2
			C112.5,34.2,109,37.3,104.9,37.3z M104.9,23.3c-3,0-4.7,2.5-4.7,5.8c0,3.2,1.8,5.9,4.7,5.9c3,0,4.7-2.6,4.7-5.8
			C109.6,25.9,107.8,23.3,104.9,23.3z"/>
		<path id="XMLID_124_" class="st2" d="M119.6,37.2c-1.9,0-3.8-0.5-5.4-1.2l0.4-2.5c1.5,0.8,3.5,1.4,5.1,1.4c1.8,0,3.1-0.8,3.1-2.2
			c0-1.3-0.8-1.8-3.1-2.6c-3.3-1.2-5-2.2-5-4.6c0-2.7,2.2-4.5,5.3-4.5c1.8,0,3.4,0.4,4.6,0.9l-0.4,2.6c-1.4-0.7-2.8-1.2-4.3-1.2
			c-1.6,0-2.6,0.8-2.6,1.9c0,1.2,0.9,1.7,3.3,2.5c3.3,1.2,4.8,2.3,4.8,4.7C125.4,35.4,123.1,37.2,119.6,37.2z"/>
		<path id="XMLID_126_" class="st2" d="M132.9,31h-2v6h-2.8V21.2h5.1c3.4,0,5.6,1.8,5.6,4.8C138.9,29.3,136.6,31,132.9,31z
			 M133,23.6h-2.1v5h2c2,0,3.2-0.7,3.2-2.5C136.2,24.5,135,23.6,133,23.6z"/>
		<path id="XMLID_129_" class="st2" d="M141.3,37V21.2h2.8V37H141.3z"/>
		<path id="XMLID_131_" class="st2" d="M154.3,23.7V37h-2.8V23.7h-5v-2.5h12.6l0.4,2.5H154.3z"/>
		<path id="XMLID_133_" class="st2" d="M161.7,37H159l6.2-16h3.1l6.2,15.6l-2.8,0.6l-1.6-4.2h-7L161.7,37z M166.7,23.7L166.7,23.7
			l-2.6,6.9h5.1C169.2,30.6,166.7,23.7,166.7,23.7z"/>
		<path id="XMLID_136_" class="st2" d="M176.6,37V21.2h2.8v13.4h6l0.4,2.4H176.6z"/>
		<path id="XMLID_138_" class="st2" d="M215.4,37L214,19.9l-6.8,17.2H205l-6.8-17.2L196.9,37h-2.7l1.7-21.5h3.6l6.7,17.6l6.7-17.6
			h3.6l1.7,21.5H215.4z"/>
		<path id="XMLID_140_" class="st2" d="M228,37.3c-4,0-6.4-2.3-6.4-6.5v-9.7h2.8v9.5c0,2.6,1.2,4.2,3.6,4.2c2.4,0,3.7-1.5,3.7-4.1
			v-9.6h2.8v9.5C234.5,35,232,37.3,228,37.3z"/>
		<path id="XMLID_142_" class="st2" d="M248.6,37l-7.9-11.7V37h-2.6V21.2h2.8l7.6,11.2V21.2h2.6V37H248.6z"/>
		<path id="XMLID_145_" class="st2" d="M254.9,37V21.2h2.8V37H254.9z"/>
		<path id="XMLID_147_" class="st2" d="M268.3,37.3c-4.6,0-7.6-3.3-7.6-8.2c0-4.9,3.1-8.3,7.6-8.3c1.9,0,3.3,0.4,4.5,1.2l-0.4,2.6
			c-1.1-0.8-2.4-1.4-4-1.4c-3.1,0-4.8,2.3-4.8,5.9c0,3.6,1.8,5.9,4.9,5.9c1.6,0,3-0.6,4.3-1.5l0.4,2.4
			C271.8,36.8,270.2,37.3,268.3,37.3z"/>
		<path id="XMLID_149_" class="st2" d="M275.9,37V21.2h2.8V37H275.9z"/>
		<path id="XMLID_151_" class="st2" d="M287.4,31h-2v6h-2.8V21.2h5.1c3.4,0,5.6,1.8,5.6,4.8C293.4,29.3,291,31,287.4,31z
			 M287.4,23.6h-2.1v5h2c2,0,3.2-0.7,3.2-2.5C290.6,24.5,289.5,23.6,287.4,23.6z"/>
		<path id="XMLID_154_" class="st2" d="M295.9,37h-2.7l6.2-16h3.1l6.2,15.6l-2.8,0.6l-1.6-4.2h-7L295.9,37z M300.9,23.7L300.9,23.7
			l-2.6,6.9h5.1C303.5,30.6,300.9,23.7,300.9,23.7z"/>
		<path id="XMLID_157_" class="st2" d="M310.8,37V21.2h2.8v13.4h6L320,37H310.8z"/>
		<path id="XMLID_159_" class="st0" d="M81.8,64.1h-4.8V48.3h4.8c5.7,0,8.7,3.3,8.7,7.9C90.5,60.6,87.5,64.1,81.8,64.1z M82,50.8
			h-2.1v10.8H82c3.6,0,5.7-2,5.7-5.4S85.4,50.8,82,50.8z"/>
		<path id="XMLID_162_" class="st0" d="M93.4,64.1V48.3h9.8v2.5h-7v3.9h5.6l0.4,2.5h-6v4.5h7.2v2.5H93.4z"/>
		<path id="XMLID_164_" class="st0" d="M117.8,64.3c-2.3,0-4.4-0.6-6-1.4l0.4-3c1.5,1,3.5,1.8,5.6,1.8c2.3,0,3.8-1.2,3.8-3.1
			c0-2-0.9-3-3.8-4.2c-4.2-1.8-5.9-3.1-5.9-6.5c0-3.3,2.6-5.5,6.5-5.5c2.1,0,3.6,0.5,4.9,1.2l-0.5,2.9c-1.2-0.9-2.8-1.6-4.5-1.6
			c-2.3,0-3.6,1.2-3.6,2.8c0,1.8,0.9,2.7,3.9,4c4.3,1.8,5.8,3.3,5.8,6.8C124.6,62,121.8,64.3,117.8,64.3z"/>
		<path id="XMLID_166_" class="st0" d="M128.4,64.1h-2.7l6.2-16h3.1l6.2,15.6l-2.8,0.6l-1.6-4.2h-7L128.4,64.1z M133.4,50.8
			L133.4,50.8l-2.6,6.9h5.1C135.9,57.7,133.4,50.8,133.4,50.8z"/>
		<path id="XMLID_169_" class="st0" d="M153.8,64.1l-7.9-11.7v11.7h-2.6V48.3h2.8l7.6,11.2V48.3h2.6v15.8H153.8z"/>
		<path id="XMLID_171_" class="st0" d="M166.2,50.8v13.3h-2.8V50.8h-5v-2.5H171l0.4,2.5H166.2z"/>
		<path id="XMLID_173_" class="st0" d="M173.7,64.1h-2.7l6.2-16h3.1l6.2,15.6l-2.8,0.6l-1.6-4.2h-7L173.7,64.1z M178.6,50.8
			L178.6,50.8l-2.6,6.9h5.1C181.2,57.7,178.6,50.8,178.6,50.8z"/>
		<path id="XMLID_176_" class="st0" d="M197.7,64.3l-4.6-6.3h-1.7v6.1h-2.8V48.3h4.9c3.6,0,6,1.7,6,4.9c0,2.3-1.3,3.8-3.3,4.5l4.5,6
			L197.7,64.3z M193.4,50.7h-2.1v5.1h2.1c2,0,3.2-0.9,3.2-2.6C196.6,51.6,195.5,50.7,193.4,50.7z"/>
		<path id="XMLID_179_" class="st0" d="M202.6,64.1V48.3h9.8v2.5h-7v3.9h5.6l0.4,2.5h-6v4.5h7.2v2.5H202.6z M208.2,46.1h-1.9
			l2.7-4.7l3.4,0.7L208.2,46.1z"/>
		<path id="XMLID_182_" class="st0" d="M231.6,64.1l-1-12.8l-4.5,12.8h-2.8l-4.5-12.8l-0.9,12.8h-2.6l1.2-15.8h4l4.3,12.7l4.4-12.7
			h3.9l1.2,15.8H231.6z"/>
	</g>
</g>
</svg>
