<?xml version="1.0" encoding="utf-8"?>
<!-- Generator: Adobe Illustrator 22.1.0, SVG Export Plug-In . SVG Version: 6.00 Build 0)  -->
<svg version="1.1" id="Layer_1" xmlns="http://www.w3.org/2000/svg" xmlns:xlink="http://www.w3.org/1999/xlink" x="0px" y="0px"
	 viewBox="0 0 40 40" style="enable-background:new 0 0 40 40;" xml:space="preserve">
<style type="text/css">
	.st0{fill:#1288C9;}
	.st1{fill:#184E82;}
</style>
<g>
	<path id="XMLID_33_" class="st0" d="M24.7,15.3l0.1-1.3c0.4-3.5,1.4-6.2,3.1-8c3.6-3.7,7.8-2.9,8-2.8l0.7,0.1L36.8,4
		c0,0.2,0.9,4.4-2.8,8c-1.7,1.7-4.4,2.7-7.9,3.1L24.7,15.3z M34.8,5.2c-0.3,0-0.8,0-1.2,0.1c-1.5,0.3-2.9,1-4,2.2
		c-1.1,1.2-1.9,3-2.4,5.3c2.4-0.4,4.1-1.2,5.3-2.3C34.5,8.5,34.8,6.4,34.8,5.2z"/>
	<path id="XMLID_13_" class="st0" d="M8,22.1c-1.7,0-3.1-0.4-4.4-1.3c0,0-0.1,0-0.1-0.1c-0.1,0.1-0.2,0.1-0.2,0.2
		c-0.5,0.5-0.9,1-1.1,1.4c1.2,0.9,3.2,1.9,5.9,1.9c2,0,4.1-0.8,6.3-2.3c-0.6-0.5-1.2-1-1.8-1.4C10.9,21.6,9.3,22.1,8,22.1z"/>
	<path id="XMLID_11_" class="st0" d="M22.1,32c0,1.7-0.4,3.1-1.3,4.4c0,0,0,0.1-0.1,0.1c0.1,0.1,0.1,0.2,0.2,0.2
		c0.5,0.5,1,0.9,1.4,1.1c0.9-1.2,1.9-3.2,1.9-5.9c0-2-0.8-4.1-2.3-6.3c-0.5,0.6-1,1.2-1.4,1.8C21.6,29.1,22.1,30.7,22.1,32z"/>
	<path id="XMLID_10_" class="st0" d="M18.5,21.6L18.5,21.6c-0.1-0.1-0.2-0.2-0.2-0.2c-0.5-0.5-0.9-0.9-1.4-1.3
		c-0.6-0.5-1.1-1-1.7-1.4c-2.5-1.9-4.9-2.8-7.1-2.9c-5.2-0.1-7.6,3.5-7.6,3.6L0,20l0.4,0.6c0,0.1,0.3,0.5,1,1.1
		c0.3-0.5,0.8-1.1,1.4-1.6c1.2-1.1,2.9-2.2,5.3-2.2c1.6,0,3.4,0.7,5.4,2.1c0.6,0.4,1.2,0.9,1.7,1.4c0.6,0.5,1.2,1.1,1.8,1.7
		c0.3,0.3,0.7,0.7,1,1c0.4-0.5,0.9-1.1,1.4-1.7C19,22.1,18.8,21.8,18.5,21.6z"/>
	<g id="XMLID_3_">
		<path id="XMLID_29_" class="st1" d="M15.3,24.7L14,24.8c-3.5,0.4-6.2,1.4-8,3.1c-3.7,3.6-2.9,7.8-2.8,8l0.1,0.7L4,36.8
			c0.2,0,4.4,0.9,8-2.8c1.7-1.7,2.7-4.4,3.1-7.9L15.3,24.7z M5.2,34.8c0-0.3,0-0.8,0.1-1.2c0.3-1.5,1-2.9,2.2-4
			c1.2-1.1,3-1.9,5.3-2.4c-0.4,2.4-1.2,4.1-2.3,5.3C8.5,34.5,6.4,34.8,5.2,34.8z"/>
		<g id="XMLID_19_">
			<path id="XMLID_23_" class="st1" d="M24.7,24.7l1.3,0.1c3.5,0.4,6.2,1.4,8,3.1c3.7,3.6,2.9,7.8,2.8,8l-0.1,0.7L36,36.8
				c-0.2,0-4.4,0.9-8-2.8c-1.7-1.7-2.7-4.4-3.1-7.9L24.7,24.7z M34.8,34.8c0-0.3,0-0.8-0.1-1.2c-0.3-1.5-1-2.9-2.2-4
				c-1.2-1.1-3-1.9-5.3-2.4c0.4,2.4,1.2,4.1,2.3,5.3C31.5,34.5,33.6,34.8,34.8,34.8z"/>
			<path id="XMLID_20_" class="st1" d="M15.3,15.3L15.2,14c-0.4-3.5-1.4-6.2-3.1-8C8.4,2.3,4.2,3.2,4,3.2L3.4,3.4L3.2,4
				c0,0.2-0.9,4.4,2.8,8c1.7,1.7,4.4,2.7,7.9,3.1L15.3,15.3z M5.2,5.2c0.3,0,0.8,0,1.2,0.1c1.5,0.3,2.9,1,4,2.2
				c1.1,1.2,1.9,3,2.4,5.3c-2.4-0.4-4.1-1.2-5.3-2.3C5.5,8.5,5.2,6.4,5.2,5.2z"/>
		</g>
		<g id="XMLID_15_">
			<path id="XMLID_18_" class="st1" d="M21.4,15.2c1.9-2.5,2.8-4.9,2.9-7.1c0.1-5.2-3.5-7.6-3.6-7.6L20,0l-0.6,0.4
				c-0.1,0-0.5,0.3-1.1,1c0.5,0.3,1.1,0.8,1.6,1.4c1.1,1.2,2.2,2.9,2.2,5.3c0,1.6-0.7,3.4-2.1,5.4c-0.4,0.6-0.9,1.2-1.4,1.7
				c-0.5,0.6-1.1,1.2-1.7,1.8l1.5,1.5c0.1-0.1,0.2-0.2,0.2-0.2c0.5-0.5,0.9-0.9,1.3-1.4C20.5,16.3,21,15.7,21.4,15.2z"/>
			<path id="XMLID_17_" class="st1" d="M17.9,8c0-1.7,0.4-3.1,1.3-4.4c0,0,0-0.1,0.1-0.1c-0.1-0.1-0.1-0.2-0.2-0.2
				c-0.5-0.5-1-0.9-1.4-1.1c-0.9,1.2-1.9,3.2-1.9,5.9c0,2,0.8,4.1,2.3,6.3c0.5-0.6,1-1.2,1.4-1.8C18.4,10.9,17.9,9.3,17.9,8z"/>
			<path id="XMLID_16_" class="st1" d="M22.1,15.9c-0.4,0.5-0.9,1.1-1.4,1.7c0.3,0.3,0.5,0.6,0.8,0.8l1.5-1.5
				C22.7,16.6,22.4,16.3,22.1,15.9z"/>
		</g>
		<path id="XMLID_12_" class="st1" d="M15.9,17.9c0.5,0.4,1.1,0.9,1.7,1.4c0.3-0.3,0.6-0.5,0.8-0.8L16.9,17
			C16.6,17.3,16.3,17.6,15.9,17.9z"/>
		<path id="XMLID_9_" class="st1" d="M24.8,21.4c2.5,1.9,4.9,2.8,7.1,2.9c5.2,0.1,7.6-3.5,7.6-3.6L40,20l-0.4-0.6
			c0-0.1-0.3-0.5-1-1.1c-0.3,0.5-0.8,1.1-1.4,1.6c-1.2,1.1-2.9,2.2-5.3,2.2c-1.6,0-3.4-0.7-5.4-2.1c-0.6-0.4-1.2-0.9-1.7-1.4
			c-0.6-0.5-1.2-1.1-1.8-1.7l-1.5,1.5c0.1,0.1,0.2,0.2,0.2,0.2c0.5,0.5,0.9,0.9,1.4,1.3C23.7,20.5,24.3,21,24.8,21.4z"/>
		<path id="XMLID_6_" class="st1" d="M32,17.9c1.7,0,3.1,0.4,4.4,1.3c0,0,0.1,0,0.1,0.1c0.1-0.1,0.2-0.1,0.2-0.2
			c0.5-0.5,0.9-1,1.1-1.4c-1.2-0.9-3.2-1.9-5.9-1.9c-2,0-4.1,0.8-6.3,2.3c0.6,0.5,1.2,1,1.8,1.4C29.1,18.4,30.7,17.9,32,17.9z"/>
	</g>
	<path id="XMLID_5_" class="st0" d="M21.4,24.8c0.5-0.6,1.1-1.2,1.7-1.8c0.3-0.3,0.7-0.7,1-1c-0.5-0.4-1.1-0.9-1.7-1.4
		c-0.3,0.3-0.6,0.5-0.8,0.8l0,0c-0.1,0.1-0.2,0.2-0.2,0.2c-0.5,0.5-0.9,0.9-1.3,1.4c-0.5,0.6-1,1.1-1.4,1.7
		c-1.9,2.5-2.8,4.9-2.9,7.1c-0.1,5.2,3.5,7.6,3.6,7.6L20,40l0.6-0.4c0.1,0,0.5-0.3,1.1-1c-0.5-0.3-1.1-0.8-1.6-1.4
		c-1.1-1.2-2.2-2.9-2.2-5.3c0-1.6,0.7-3.4,2.1-5.4C20.4,26,20.8,25.4,21.4,24.8z"/>
</g>
</svg>
